<?xml version="1.0" encoding="UTF-8" standalone="no"?>
<!-- Created with Inkscape (http://www.inkscape.org/) -->

<svg
   width="59.576229mm"
   height="59.369991mm"
   viewBox="0 0 59.576229 59.369991"
   version="1.1"
   id="svg1"
   xml:space="preserve"
   inkscape:export-filename="no-audio-icon.svg"
   inkscape:export-xdpi="96"
   inkscape:export-ydpi="96"
   xmlns:inkscape="http://www.inkscape.org/namespaces/inkscape"
   xmlns:sodipodi="http://sodipodi.sourceforge.net/DTD/sodipodi-0.dtd"
   xmlns="http://www.w3.org/2000/svg"
   xmlns:svg="http://www.w3.org/2000/svg"><sodipodi:namedview
     id="namedview1"
     pagecolor="#ffffff"
     bordercolor="#000000"
     borderopacity="0.25"
     inkscape:showpageshadow="2"
     inkscape:pageopacity="0.0"
     inkscape:pagecheckerboard="0"
     inkscape:deskcolor="#d1d1d1"
     inkscape:document-units="mm" /><defs
     id="defs1" /><g
     inkscape:label="Layer 1"
     inkscape:groupmode="layer"
     id="layer1"><path
       style="fill:#ffffff;stroke-width:1.05216"
       d="m 55.048105,57.246197 c -0.27917,-0.047 -0.604119,-0.170635 -0.834584,-0.317543 C 54.049479,56.82409 47.551382,50.347865 28.627869,31.429119 14.676706,17.481465 3.1640468,5.9563565 3.0441837,5.8177661 2.9243196,5.6791764 2.7729769,5.4596197 2.7078661,5.3298625 L 2.5894824,5.0939405 2.5787714,4.4306073 2.5680604,3.7672742 2.7263978,3.450981 C 2.9836656,2.9370623 3.4658083,2.5332044 4.0093856,2.3763092 4.1673558,2.3307139 4.3258448,2.3208825 4.7615388,2.3296554 l 0.5520104,0.011114 0.3107796,0.1521975 0.3107795,0.1521975 6.2120747,6.2074779 6.212075,6.2074787 0.461756,-0.456769 c 2.153434,-2.130199 7.328745,-7.1234341 7.531696,-7.2667225 0.933581,-0.6591223 1.889574,-0.7860674 2.63405,-0.3497726 0.532772,0.3122232 0.906615,0.9971244 1.0112,1.8525734 0.02399,0.1965617 0.03609,3.2382527 0.03609,9.0960037 v 8.80069 l 2.771757,2.770514 2.771746,2.770514 0.06986,-0.08713 c 0.149017,-0.185937 0.485003,-0.929898 0.570586,-1.263453 0.378714,-1.476021 0.0053,-2.971633 -1.004992,-4.025984 -0.496609,-0.518233 -0.9842,-0.821673 -1.695839,-1.055353 -0.594902,-0.19535 -0.800841,-0.312213 -1.135133,-0.644154 -0.226457,-0.224853 -0.311639,-0.340263 -0.42482,-0.575523 -0.352474,-0.732658 -0.331073,-1.59942 0.05398,-2.184443 0.463697,-0.704581 1.486438,-1.095875 2.307807,-0.882956 0.974194,0.252535 2.22597,0.896182 3.085942,1.586757 1.128568,0.906258 2.085865,2.219868 2.610566,3.582216 0.396412,1.029273 0.55876,1.924158 0.557992,3.075649 -4.94e-4,0.73682 -0.03641,1.097583 -0.176742,1.777364 -0.245879,1.190715 -0.872787,2.508001 -1.613297,3.389947 -0.116075,0.138236 -0.211032,0.263297 -0.211032,0.277913 0,0.01462 0.664492,0.690926 1.476643,1.502909 l 1.476633,1.476334 0.234968,-0.274153 c 1.584752,-1.849072 2.580548,-4.024849 2.924709,-6.390375 0.141726,-0.974142 0.159445,-2.39829 0.04104,-3.299599 -0.504974,-3.844217 -2.533064,-7.059919 -5.795822,-9.18976 -0.244922,-0.159878 -0.566546,-0.356917 -0.714722,-0.437866 -0.492316,-0.268956 -0.793328,-0.617213 -1.003697,-1.161258 -0.167146,-0.432248 -0.21886,-0.723145 -0.221427,-1.245636 -0.0032,-0.564233 0.01641,-0.616096 0.367298,-0.991796 0.459847,-0.492395 0.93596,-0.714573 1.53306,-0.715402 0.428976,-5.95e-4 0.652024,0.06755 1.186836,0.362597 4.80675,2.651795 8.024959,7.428436 8.654319,12.84519 0.128637,1.107202 0.127932,2.609975 -0.0021,3.703016 -0.398874,3.362055 -1.763788,6.474587 -4.007834,9.13944 l -0.369613,0.438923 1.348553,1.374873 c 0.741709,0.75618 1.359138,1.374873 1.372058,1.374873 0.0423,0 1.340578,-1.333203 1.645957,-1.690239 0.741688,-0.867135 1.552609,-2.012838 2.084339,-2.944847 1.9706,-3.453996 2.788328,-7.490248 2.333374,-11.517367 -0.372601,-3.298221 -1.628775,-6.468212 -3.604699,-9.096569 -0.625246,-0.831707 -0.920713,-1.169614 -1.739925,-1.989852 -1.459009,-1.460835 -2.788802,-2.43893 -4.63751,-3.411006 -0.534592,-0.281095 -0.68646,-0.396302 -0.908256,-0.688999 -0.438519,-0.578705 -0.609011,-1.361388 -0.415824,-1.908929 0.06892,-0.195242 0.305274,-0.5731224 0.465655,-0.7443835 0.458205,-0.4892795 1.361999,-0.7295054 2.116419,-0.5625414 0.645742,0.1429107 2.604927,1.2838209 4.054908,2.3613309 1.643421,1.221262 3.218346,2.758274 4.452014,4.344836 2.810855,3.614913 4.412305,7.901476 4.718789,12.630587 0.05198,0.801968 0.02157,2.813053 -0.05356,3.543138 -0.300592,2.920839 -1.054222,5.505703 -2.357311,8.085263 -1.118888,2.214938 -2.500511,4.125476 -4.309152,5.958797 l -0.739784,0.74988 3.428662,3.432752 c 2.486433,2.489399 3.467982,3.494252 3.571746,3.656546 0.285314,0.446258 0.401546,1.043482 0.302359,1.553569 -0.219807,1.13048 -1.32186,1.911102 -2.433751,1.723915 z M 27.246067,52.783985 c -0.330536,-0.08652 -0.749064,-0.294073 -1.062954,-0.527117 -0.134172,-0.09962 -0.526238,-0.458143 -0.871252,-0.796726 -0.345024,-0.338583 -3.510594,-3.456323 -7.034602,-6.928313 L 11.869966,38.219123 H 8.1152685 c -3.6055073,0 -3.7652314,-0.0027 -4.0197868,-0.0678 C 3.7022981,38.050767 3.4629854,37.922793 3.1945332,37.669549 3.0105136,37.495956 2.9210905,37.376057 2.8144752,37.159966 2.5551788,36.634415 2.5697407,37.101413 2.5801582,29.6458 l 0.00936,-6.67367 0.097725,-0.278803 C 2.9199967,22.029266 3.3660009,21.609248 4.0353565,21.42376 4.2913806,21.35281 4.3597457,21.35159 8.0780498,21.35159 h 3.7822642 l 0.2933,-0.196367 c 0.223477,-0.149618 0.306368,-0.188265 0.348193,-0.162339 0.03019,0.01872 3.939781,3.9454 8.687977,8.725969 l 8.633086,8.691945 -0.0095,6.098797 c -0.0095,6.079298 -0.0095,6.099745 -0.0828,6.395025 -0.160792,0.645639 -0.353358,1.031949 -0.694899,1.394 -0.468201,0.496316 -1.096866,0.666787 -1.789935,0.485363 z"
       id="path1" /></g></svg>
